<svg xmlns="http://www.w3.org/2000/svg" width="25" height="25" viewBox="0 0 25 25"><defs><style>.a{fill:#fafafa;stroke:#e1b93b;stroke-width:0.5px;}.b{fill:#e1b93b;}.c{stroke:none;}.d{fill:none;}</style></defs><g transform="translate(-20 -225.001)"><g transform="translate(20 225)"><g class="a" transform="translate(0 0.001)"><circle class="c" cx="12.5" cy="12.5" r="12.5"/><circle class="d" cx="12.5" cy="12.5" r="12.25"/></g></g><g transform="translate(24.167 229.167)"><path class="b" d="M418.387,415.47l-1.988-1.988,1.988-1.988,1.988,1.988Zm4.518-1.988-.008.008,1.844,1.844,1.852-1.852-1.865-1.865-1.844,1.844Z" transform="translate(-410.181 -405.276)"/><path class="b" d="M107.191,104.154l3.2-3.2,3.243,3.243,1.844-1.844-5.087-5.087-5.04,5.04Zm6.451,2.586L110.386,110l-3.227-3.227-1.844,1.844,5.071,5.071,5.1-5.1Zm-7.774-1.263.068-.068-1.844-1.844-1.912,1.912,1.881,1.881,1.844-1.844Z" transform="translate(-102.18 -97.271)"/></g></g></svg>