<svg xmlns="http://www.w3.org/2000/svg" width="23.688" height="23.688" viewBox="0 0 23.688 23.688"><defs><style>.a{fill:#fff;}</style></defs><g transform="translate(-67.6 -69.6)"><path class="a" d="M79.444,93.288a11.844,11.844,0,1,1,7.1-21.321.912.912,0,1,1-1.1,1.458,10,10,0,1,0,3.293,4.288.912.912,0,1,1,1.692-.681A11.847,11.847,0,0,1,79.444,93.288Z" transform="translate(0 0)"/><path class="a" d="M790.651,234.851m-1.051,0a1.051,1.051,0,1,0,1.051-1.051A1.051,1.051,0,0,0,789.6,234.851Z" transform="translate(-702.796 -159.833)"/><path class="a" d="M316.655,123.917a.731.731,0,0,1-.473-.176,14.229,14.229,0,0,1-1.226-1.178A14.759,14.759,0,0,1,311,112.581v-.093a14.74,14.74,0,0,1,4.6-10.714c.13-.125.266-.247.4-.367a.729.729,0,1,1,.966,1.093c-.122.109-.245.221-.362.332a13.291,13.291,0,0,0-4.144,9.658v.088a13.289,13.289,0,0,0,3.564,8.993,12.947,12.947,0,0,0,1.1,1.061.726.726,0,0,1,.08,1.027A.706.706,0,0,1,316.655,123.917Z" transform="translate(-236.926 -30.783)"/><path class="a" d="M460.656,122.52a.729.729,0,0,1-.436-1.314,13.658,13.658,0,0,0,1.221-1.029,13.312,13.312,0,0,0,4.125-9c.011-.226.016-.45.016-.665a13.3,13.3,0,0,0-3.564-9.081c-.106-.117-.221-.234-.351-.364a.73.73,0,1,1,1.029-1.035c.149.146.277.282.4.412a14.76,14.76,0,0,1,3.95,10.07c0,.239-.005.487-.019.734a14.773,14.773,0,0,1-4.577,9.98,14.231,14.231,0,0,1-1.354,1.141A.729.729,0,0,1,460.656,122.52Z" transform="translate(-381.89 -29.421)"/><path class="a" d="M114.485,433.957a.709.709,0,0,1-.41-.128,15.025,15.025,0,0,0-5.059-2.232,15.242,15.242,0,0,0-3.479-.4h-.005a15.117,15.117,0,0,0-8.073,2.325.729.729,0,0,1-.777-1.234,16.513,16.513,0,0,1,5.977-2.3,16.694,16.694,0,0,1,2.873-.247h.005a16.646,16.646,0,0,1,3.812.441,16.467,16.467,0,0,1,5.548,2.447.73.73,0,0,1,.192,1.013A.739.739,0,0,1,114.485,433.957Zm2.37-7.091-21.326-.008a.729.729,0,0,1,0-1.458l21.326.008a.729.729,0,1,1,0,1.458Z" transform="translate(-26.477 -346.336)"/></g></svg>